<svg width="40" height="40" viewBox="0 0 40 40" fill="none" xmlns="http://www.w3.org/2000/svg">
<g clip-path="url(#clip0_268_510)">
<path d="M20 0C13.4596 0 8.09961 5.344 8.09961 11.8664C8.09961 14.3936 8.90681 16.7424 10.2728 18.6728L18.5476 32.978C19.7064 34.492 20.4768 34.2044 21.4404 32.898L30.5676 17.366C30.7516 17.0324 30.8964 16.6772 31.0224 16.3144C31.6014 14.9029 31.8992 13.392 31.8992 11.8664C31.8996 5.344 26.5412 0 20 0ZM20 5.56C23.5224 5.56 26.3232 8.3544 26.3232 11.8664C26.3232 15.3784 23.5224 18.172 20 18.172C16.478 18.172 13.676 15.3792 13.676 11.8668C13.676 8.3544 16.478 5.5604 19.9996 5.5604" fill="#E1E100"/>
<path d="M27.5652 19.5635L27.546 19.6139L27.5628 19.5679L27.5652 19.5635ZM13.6024 27.6231C7.952 28.4215 4 30.3315 4 33.1431C4 36.9303 10.6032 40.0003 20 40.0003C29.3968 40.0003 36 36.9303 36 33.1431C36 30.3315 32.0484 28.4215 26.3984 27.6231L25.6156 28.9559C29.874 29.5467 32.8 30.7883 32.8 32.2291C32.8 34.2491 27.0692 35.8863 20 35.8863C12.9308 35.8863 7.2 34.2491 7.2 32.2291C7.1996 30.7931 10.1064 29.5527 14.378 28.9595L13.6024 27.6231Z" fill="#E1E100"/>
</g>
<defs>
<clipPath id="clip0_268_510">
<rect width="40" height="40" fill="white"/>
</clipPath>
</defs>
</svg>
